Simulation
nRows=32
nColumns=15
endheader
time  TH_x TH_y TH_z SC_y  SC_z  SC_x  AC_y  AC_z  AC_x  GH_y  GH_z  GH_yy  EL_x  PS_y
0.595  0.000000  0.000000  0.000000  -38.89241690051678  3.975551345349724  5.287599338834263  56.05749263143772  7.599343477235537  -5.916559906323706  -4.386354959375988  36.08067694089924  7.640128995142733  24.356387338344287  0.000000
0.6069  0.000000  0.000000  0.000000  -39.0156953439945  4.039347789718179  5.449079927317136  56.138445672346215  7.840690648401213  -5.892295450827009  -3.969880686137697  36.85108165620256  6.975392054579987  24.208104103997584  0.000000
0.6187999999999999  0.000000  0.000000  0.000000  -39.14357520052309  4.109158542169736  5.612277034972249  56.22326680167047  8.082455573660763  -5.858541271708398  -3.5516055808756444  37.597923156775366  6.334411081469968  24.052500280241915  0.000000
0.6306999999999999  0.000000  0.000000  0.000000  -39.277181912732516  4.184860363369559  5.777617345737859  56.310192570982494  8.32704770252234  -5.814278276773667  -3.1316012163434803  38.31670324525343  5.719417249428222  23.889978921810204  0.000000
0.6426  0.000000  0.000000  0.000000  -39.413641315876745  4.265437910328641  5.943069010291869  56.4003279963081  8.572220073477583  -5.762179714982798  -2.715994783453337  39.01049044806763  5.130762887253075  23.721993637066788  0.000000
0.6545  0.000000  0.000000  0.000000  -39.554572720491116  4.351333788536402  6.11183237084643  56.491128007626976  8.818823257588862  -5.702028211586647  -2.3031898972257787  39.675443331555584  4.571786795140732  23.548365408384367  0.000000
0.6664  0.000000  0.000000  0.000000  -39.698976345019496  4.443361865815842  6.28115531234892  56.58415692332125  9.06378263386307  -5.63414008638264  -1.897999894823984  40.31635986534067  4.042800930769646  23.370575856086436  0.000000
0.6782999999999999  0.000000  0.000000  0.000000  -39.849372473291716  4.541290613027399  6.45353256393997  56.67714319351919  9.310279951355719  -5.557553121080377  -1.4983252125450457  40.928683357763106  3.546031149402884  23.18944544670231  0.000000
0.6901999999999999  0.000000  0.000000  0.000000  -40.004422015257404  4.645005666261352  6.625634868095938  56.77211341043004  9.555406140435988  -5.472951664481995  -1.1098311134311443  41.51833237081141  3.0802071596802008  23.00667087518726  0.000000
0.7021  0.000000  0.000000  0.000000  -40.16636911796722  4.753924683591981  6.799803336723086  56.86666148724746  9.803721584054832  -5.379215384818555  -0.729936238565053  42.07985166215666  2.6477267557308286  22.822623549056754  0.000000
0.714  0.000000  0.000000  0.000000  -40.33294552702694  4.867797886727769  6.9715011303870495  56.9630794510606  10.05259431616695  -5.277212533991787  -0.3648592756257251  42.62009653060972  2.2463390997174333  22.63885546921394  0.000000
0.7259  0.000000  0.000000  0.000000  -40.5060853143504  4.985932231853833  7.1422381300682645  57.05852640386066  10.308356906136133  -5.164505291944476  -0.011778283991814872  43.132487502885866  1.8783944510774289  22.455465883075163  0.000000
0.7377999999999999  0.000000  0.000000  0.000000  -40.6832983820823  5.107163861618328  7.30608197641547  57.155952960625754  10.568922346658903  -5.042760056504344  0.3230671091588735  43.62564782738724  1.5411499521060044  22.274774125954746  0.000000
0.7496999999999999  0.000000  0.000000  0.000000  -40.8666846794627  5.23081228948761  7.471026324806679  57.25229506854031  10.836527881162626  -4.9118683853522285  0.6438307975851914  44.092395666355245  1.2376634517486171  22.097769543461066  0.000000
0.7615999999999999  0.000000  0.000000  0.000000  -41.05256687787223  5.357508753829516  7.633441044444052  57.35124744740209  11.106327432353632  -4.774735949048839  0.945060059614928  44.54241881327168  0.9634510426878281  21.92625533301407  0.000000
0.7735  0.000000  0.000000  0.000000  -41.2432756069165  5.488050582348552  7.797303939535709  57.4495198588947  11.385624967862585  -4.62662089799101  1.2322580076667105  44.96695476822419  0.7210109956149034  21.760524106194428  0.000000
0.7854  0.000000  0.000000  0.000000  -41.43424338216806  5.625204506445957  7.954539341526984  57.54817460768225  11.671995610609722  -4.467633365084215  1.5019220930709758  45.376209237499204  0.5072722864268603  21.60275559195663  0.000000
0.7972999999999999  0.000000  0.000000  0.000000  -41.62934568796324  5.76996146601126  8.106794942835656  57.64431657686201  11.975303805232757  -4.291522055276208  1.760509996685525  45.75910673043332  0.32370417445865074  21.455024427891754  0.000000
0.8091999999999999  0.000000  0.000000  0.000000  -41.827828877036566  5.922731526523809  8.243134075297146  57.73860741441516  12.292784673253255  -4.09569475098975  2.0068991863637424  46.12959723200318  0.16633098662063664  21.320398539216786  0.000000
0.8210999999999999  0.000000  0.000000  0.000000  -42.030436698575315  6.089338448292596  8.365927192498026  57.8257048480479  12.632656247118609  -3.870459395400878  2.245586706069725  46.472166810143015  0.035803804757558864  21.197989632010028  0.000000
0.833  0.000000  0.000000  0.000000  -42.228423404616095  6.271221455786236  8.464152662519183  57.90706306113233  12.987757652617923  -3.6211555352122633  2.4678701212519503  46.80455129783235  -0.07035862484585258  21.08803827545229  0.000000
0.8449  0.000000  0.000000  0.000000  -42.42543988773573  6.466298483575065  8.55367011142724  57.97688366140689  13.360331792856954  -3.3432845292543045  2.6742488819937082  47.11178234267246  -0.14918932748995575  20.992351111309922  0.000000
0.8567999999999999  0.000000  0.000000  0.000000  -42.61500347370999  6.67498322122998  8.63544750125013  58.046197945049535  13.72801354725542  -3.0517717412672427  2.8520821380996866  47.41980456840629  -0.2102503020759052  20.90383304179518  0.000000
0.8686999999999999  0.000000  0.000000  0.000000  -42.795673460314916  6.886991795308886  8.742474672309834  58.10944386615036  14.086494034195724  -2.7624845555580553  2.9999950864824863  47.71465485828864  -0.2553508309870769  20.825671576822216  0.000000
0.8805999999999999  0.000000  0.000000  0.000000  -42.9621008664163  7.089351798906011  8.89310084985151  58.17770985183935  14.400579189028278  -2.5061151648919426  3.1055757138712514  48.0358466018551  -0.2909207352964249  20.75473693694398  0.000000
0.8925  0.000000  0.000000  0.000000  -43.128071532348784  7.272936166650764  9.12661699209099  58.26136182633659  14.664062577831938  -2.2977561314677035  3.175055018833649  48.36885597043962  -0.32494803526522587  20.688735097144527  0.000000
0.9044  0.000000  0.000000  0.000000  -43.2869791962224  7.449550626207147  9.4303964743434  58.345256104905204  14.862502024170297  -2.1204847459292058  3.205068169854194  48.73877777834532  -0.3540234199590903  20.629665644578097  0.000000
0.9162999999999999  0.000000  0.000000  0.000000  -43.454550491891986  7.633116555135885  9.767961986062504  58.455987778213554  15.05680763964936  -1.9481638400212296  3.196262349674876  49.11192209848056  -0.3849874599328221  20.56300120307209  0.000000
0.9281999999999999  0.000000  0.000000  0.000000  -43.634630250664244  7.835840361328931  10.100248269737985  58.55368083017244  15.252072904341285  -1.7263123125581636  3.1655838880197127  49.51550077391176  -0.40790188188256726  20.50519247342556  0.000000
0.9400999999999999  0.000000  0.000000  0.000000  -43.84217057713779  8.061578361556624  10.429503966851371  58.6727734463746  15.494818623886985  -1.4659342944165379  3.118165396552729  49.90450157700683  -0.43823887100768955  20.448635940517704  0.000000
0.952  0.000000  0.000000  0.000000  -44.06511196807245  8.315607236428354  10.716677578045475  58.77486517034675  15.77663179530293  -1.1267520904584576  3.0523651876803792  50.32299184649766  -0.4631962628484222  20.410783431915494  0.000000
0.9639  0.000000  0.000000  0.000000  -44.326284634152984  8.591993919873909  10.990807346398745  58.893795986587556  16.13603479795279  -0.7335168291305851  2.982355203602223  50.714526421129385  -0.4976765800963218  20.379179326439882  0.000000
